<?xml version="1.0" standalone="no"?>
<svg version="1.0" xmlns="http://www.w3.org/2000/svg" width="225.000000pt" height="225.000000pt" viewBox="0 0 225.000000 225.000000" preserveAspectRatio="xMidYMid meet">

    <g transform="translate(0.000000,225.000000) scale(0.100000,-0.100000)" fill="#000000" stroke="none">
        <path d="M954 2144 c-347 -58 -656 -305 -782 -624 -51 -128 -51 -122 3 -118 l47 3 23 62 c20 55 80 167 117 216 13 17 17 16 88 -16 41 -19 101 -43 133 -53
            31 -10 57 -22 57 -28 -1 -6 -7 -40 -15 -76 -23 -106 -22 -110 28 -110 l43 0 12 73 c7 39 16 78 20 85 7 10 29 9 113 -3 57 -8 134 -17 172 -21 l67 -6 0 -64
            0 -64 45 0 45 0 0 64 0 64 68 6 c37 4 114 13 171 21 84 12 106 13 113 3 4 -7
            13 -46 20 -85 l12 -73 43 0 c50 0 51 4 28 110 -8 36 -14 70 -15 76 0 6 26 18
            58 28 31 10 90 33 131 52 41 19 75 34 77 34 10 0 101 -163 124 -223 l28 -72
            46 -3 c25 -2 46 -1 46 1 0 16 -44 126 -78 192 -200 398 -646 624 -1088 549z
            m126 -300 l0 -227 -77 7 c-146 12 -234 28 -240 42 -3 8 20 66 51 129 42 87 70
            129 114 173 44 45 118 95 150 102 1 0 2 -102 2 -226z m187 175 c24 -17 62 -54
            85 -82 47 -59 142 -251 135 -271 -6 -14 -96 -30 -234 -42 l-83 -7 0 223 0 222
            27 -6 c14 -4 46 -21 70 -37z m-441 -31 c-37 -43 -111 -179 -141 -261 -20 -54
            -11 -53 -136 -6 -120 46 -121 47 -58 104 76 68 181 134 274 172 44 18 84 33
            88 33 5 0 -7 -19 -27 -42z m666 7 c79 -31 192 -103 263 -168 l60 -54 -40 -20
            c-33 -17 -179 -73 -189 -73 -2 0 -11 21 -21 48 -31 82 -104 217 -142 262 -42 48 -40 48 69 5z" />

        <path d="M140 1297 c0 -2 24 -80 54 -173 l53 -169 54 -3 54 -3 45 130 c25 71
            47 128 50 126 3 -2 26 -60 50 -129 l43 -126 52 0 52 0 52 161 c29 88 55 167
            58 175 4 11 -5 14 -43 14 l-49 0 -34 -120 c-19 -66 -38 -117 -42 -113 -3 5
            -23 59 -44 121 l-37 112 -57 0 -58 0 -43 -122 -44 -123 -22 75 c-13 41 -29 96
            -36 123 l-12 47 -48 0 c-26 0 -48 -1 -48 -3z" />

        <path d="M869 1125 l56 -176 54 3 54 3 45 128 c24 70 46 126 48 124 2 -2 23
            -59 48 -128 l44 -124 53 -3 54 -2 56 175 57 175 -48 0 -49 0 -16 -57 c-35
            -124 -49 -168 -55 -175 -3 -5 -24 46 -45 112 l-39 121 -60 -3 -59 -3 -42 -119
            c-48 -136 -37 -141 -90 37 l-26 87 -48 0 -48 0 56 -175z" />

        <path d="M1495 1278 c3 -13 28 -90 54 -173 l48 -150 54 -3 54 -3 45 130 c25
            71 47 128 50 126 3 -2 26 -60 50 -129 l45 -126 52 0 52 0 49 153 c27 83 52
            162 56 175 7 22 6 23 -40 20 l-48 -3 -35 -118 c-19 -65 -38 -114 -41 -110 -4
            5 -24 59 -45 121 l-37 112 -57 0 -58 0 -43 -122 -44 -123 -22 75 c-13 41 -29
            96 -36 123 l-12 47 -48 0 c-45 0 -48 -1 -43 -22z" />

        <path d="M135 828 c27 -89 74 -188 126 -267 317 -481 958 -613 1434 -296 175
            116 315 288 388 475 44 115 45 110 -6 110 l-45 0 -31 -77 c-38 -95 -119 -226
            -135 -219 -55 25 -234 96 -243 96 -16 0 -16 9 2 90 23 106 22 110 -28 110
            l-43 0 -12 -72 c-7 -40 -16 -79 -20 -86 -7 -10 -29 -9 -113 3 -57 8 -134 17
            -171 21 l-68 6 0 64 0 64 -45 0 -45 0 0 -64 0 -64 -67 -6 c-38 -4 -115 -13
            -172 -21 -84 -12 -106 -13 -113 -3 -4 7 -13 46 -20 86 l-12 72 -43 0 c-50 0
            -51 -4 -28 -110 18 -81 18 -90 3 -90 -10 0 -189 -71 -244 -96 -16 -7 -97 124
            -135 219 l-31 77 -45 0 c-41 0 -44 -2 -38 -22z m945 -418 c0 -206 -1 -220 -18
            -220 -28 0 -107 56 -153 108 -46 54 -154 265 -146 286 4 9 35 18 89 25 125 16
            140 18 186 20 l42 1 0 -220z m323 198 c48 -6 81 -16 84 -24 7 -20 -88 -212
            -135 -271 -44 -55 -135 -123 -164 -123 -17 0 -18 17 -18 221 l0 222 78 -7 c42
            -3 112 -11 155 -18z m-718 -85 c31 -83 104 -218 142 -263 34 -39 35 -42 12
            -35 -117 36 -250 112 -344 198 l-60 54 35 18 c33 17 178 73 191 75 4 0 14 -21
            24 -47z m1016 6 c120 -46 121 -47 58 -104 -74 -66 -178 -132 -272 -172 -43
            -18 -83 -33 -88 -33 -5 0 9 23 32 52 42 53 102 166 134 251 20 54 11 53 136 6z" />
    </g>
</svg>
